# xmcd
#
# Track frame offsets: 
#        150
#        11715
#        24709
#        38573
#        51157
#        64159
#        76355
#        92003
#        104937
#        121479
#        135666
#        147742
#        163391
#        177627
#        196882
#        214041
#        228471
#        243998
#        257899
#        270982
#
# Disc length: 3818 seconds
#
# Revision: 0
# Processed by: cddbd v1.5.2PL0 Copyright (c) Steve Scherf et al.
# Submitted via: ExactAudioCopy v0.95b3
#
DISCID=2e0ee814
DTITLE=Jelly Roll Morton - An Introduction To Jelly Roll Morton
DYEAR=2006
DGENRE=Blues
TTITLE0=King Porter Stomp
TTITLE1=Kansas City Stomp
TTITLE2=Jelly Roll Blues
TTITLE3=Shreveport Stomps
TTITLE4=Tin Roof Blues
TTITLE5=Perfect Rag
TTITLE6=Sweet Man
TTITLE7=Big Fat Ham
TTITLE8=Stratford Hunch
TTITLE9=Grandpa'S Spell
TTITLE10=New Orleans Joys
TTITLE11=Wolverine Blues
TTITLE12=London Blues
TTITLE13=Dead Man Blues
TTITLE14=Mr. Jelly Lord
TTITLE15=Black Bottom Stomp
TTITLE16=Sidewalk Blues
TTITLE17=Steamboat Stomp
TTITLE18=Ponchartrain
TTITLE19=Smoke-House Blues
EXTD=
EXTT0=
EXTT1=
EXTT2=
EXTT3=
EXTT4=
EXTT5=
EXTT6=
EXTT7=
EXTT8=
EXTT9=
EXTT10=
EXTT11=
EXTT12=
EXTT13=
EXTT14=
EXTT15=
EXTT16=
EXTT17=
EXTT18=
EXTT19=
PLAYORDER=
